<svg width="13" height="16" viewBox="0 0 13 16" fill="none" xmlns="http://www.w3.org/2000/svg">
<path fill-rule="evenodd" clip-rule="evenodd" d="M4.08703 3.53236C4.11969 3.49962 4.15849 3.47365 4.2012 3.45592C4.24391 3.4382 4.2897 3.42908 4.33594 3.42908C4.38218 3.42908 4.42797 3.4382 4.47068 3.45592C4.51339 3.47365 4.55219 3.49962 4.58485 3.53236L8.8036 7.75111C8.83634 7.78377 8.86231 7.82256 8.88003 7.86528C8.89776 7.90799 8.90688 7.95378 8.90688 8.00002C8.90688 8.04626 8.89776 8.09205 8.88003 8.13476C8.86231 8.17747 8.83634 8.21627 8.8036 8.24892L4.58485 12.4677C4.51883 12.5337 4.4293 12.5708 4.33594 12.5708C4.24258 12.5708 4.15305 12.5337 4.08703 12.4677C4.02102 12.4017 3.98393 12.3121 3.98393 12.2188C3.98393 12.1254 4.02102 12.0359 4.08703 11.9699L8.05758 8.00002L4.08703 4.03017C4.05429 3.99752 4.02832 3.95872 4.0106 3.91601C3.99287 3.8733 3.98375 3.82751 3.98375 3.78127C3.98375 3.73503 3.99287 3.68924 4.0106 3.64653C4.02832 3.60381 4.05429 3.56502 4.08703 3.53236Z" fill="#3C4852" stroke="#3C4852" stroke-width="1.05469"/>
</svg>
