<svg width="28" height="28" viewBox="0 0 28 28" fill="none" xmlns="http://www.w3.org/2000/svg">
<path d="M8.96655 2.68555H18.483C22.1084 2.68555 25.054 5.63113 25.054 9.25646V18.773C25.054 20.5157 24.3617 22.187 23.1294 23.4193C21.8971 24.6516 20.2258 25.3439 18.483 25.3439H8.96655C5.34121 25.3439 2.39563 22.3983 2.39563 18.773V9.25646C2.39563 7.51375 3.08792 5.84241 4.32021 4.61012C5.55249 3.37784 7.22383 2.68555 8.96655 2.68555ZM8.73996 4.95138C7.65828 4.95138 6.6209 5.38108 5.85603 6.14595C5.09116 6.91081 4.66146 7.94819 4.66146 9.02988V18.9995C4.66146 21.2541 6.48546 23.078 8.73996 23.078H18.7096C19.7913 23.078 20.8287 22.6484 21.5936 21.8835C22.3584 21.1186 22.7881 20.0812 22.7881 18.9995V9.02988C22.7881 6.77538 20.9641 4.95138 18.7096 4.95138H8.73996ZM19.6726 6.65076C20.0482 6.65076 20.4084 6.79996 20.674 7.06553C20.9396 7.33111 21.0888 7.69132 21.0888 8.0669C21.0888 8.44249 20.9396 8.80269 20.674 9.06827C20.4084 9.33385 20.0482 9.48305 19.6726 9.48305C19.297 9.48305 18.9368 9.33385 18.6712 9.06827C18.4057 8.80269 18.2565 8.44249 18.2565 8.0669C18.2565 7.69132 18.4057 7.33111 18.6712 7.06553C18.9368 6.79996 19.297 6.65076 19.6726 6.65076ZM13.7248 8.35013C15.2271 8.35013 16.6679 8.94693 17.7303 10.0092C18.7926 11.0716 19.3894 12.5124 19.3894 14.0147C19.3894 15.5171 18.7926 16.9579 17.7303 18.0202C16.6679 19.0825 15.2271 19.6793 13.7248 19.6793C12.2225 19.6793 10.7816 19.0825 9.71933 18.0202C8.65702 16.9579 8.06021 15.5171 8.06021 14.0147C8.06021 12.5124 8.65702 11.0716 9.71933 10.0092C10.7816 8.94693 12.2225 8.35013 13.7248 8.35013ZM13.7248 10.616C12.8234 10.616 11.9589 10.974 11.3215 11.6114C10.6841 12.2488 10.326 13.1133 10.326 14.0147C10.326 14.9161 10.6841 15.7806 11.3215 16.418C11.9589 17.0554 12.8234 17.4135 13.7248 17.4135C14.6262 17.4135 15.4907 17.0554 16.1281 16.418C16.7655 15.7806 17.1235 14.9161 17.1235 14.0147C17.1235 13.1133 16.7655 12.2488 16.1281 11.6114C15.4907 10.974 14.6262 10.616 13.7248 10.616Z" fill="white"/>
</svg>
