<svg width="12" height="16" viewBox="0 0 12 16" fill="none" xmlns="http://www.w3.org/2000/svg">
<path fill-rule="evenodd" clip-rule="evenodd" d="M3.6466 3.53236C3.67926 3.49962 3.71806 3.47365 3.76077 3.45592C3.80348 3.4382 3.84927 3.42908 3.89551 3.42908C3.94175 3.42908 3.98754 3.4382 4.03025 3.45592C4.07296 3.47365 4.11176 3.49962 4.14442 3.53236L8.36317 7.75111C8.39591 7.78377 8.42188 7.82256 8.43961 7.86528C8.45733 7.90799 8.46645 7.95378 8.46645 8.00002C8.46645 8.04626 8.45733 8.09205 8.43961 8.13476C8.42188 8.17747 8.39591 8.21627 8.36317 8.24892L4.14442 12.4677C4.0784 12.5337 3.98887 12.5708 3.89551 12.5708C3.80215 12.5708 3.71262 12.5337 3.6466 12.4677C3.58059 12.4017 3.5435 12.3121 3.5435 12.2188C3.5435 12.1254 3.58059 12.0359 3.6466 11.9699L7.61715 8.00002L3.6466 4.03017C3.61386 3.99752 3.58789 3.95872 3.57017 3.91601C3.55244 3.8733 3.54332 3.82751 3.54332 3.78127C3.54332 3.73503 3.55244 3.68924 3.57017 3.64653C3.58789 3.60381 3.61386 3.56502 3.6466 3.53236Z" fill="#3C4852" stroke="#3C4852" stroke-width="1.05469"/>
</svg>
