<svg width="12" height="16" viewBox="0 0 12 16" fill="none" xmlns="http://www.w3.org/2000/svg">
<path fill-rule="evenodd" clip-rule="evenodd" d="M3.26672 3.53236C3.29938 3.49962 3.33817 3.47365 3.38089 3.45592C3.4236 3.4382 3.46939 3.42908 3.51563 3.42908C3.56187 3.42908 3.60766 3.4382 3.65037 3.45592C3.69308 3.47365 3.73188 3.49962 3.76453 3.53236L7.98328 7.75111C8.01602 7.78377 8.042 7.82256 8.05972 7.86528C8.07745 7.90799 8.08657 7.95378 8.08657 8.00002C8.08657 8.04626 8.07745 8.09205 8.05972 8.13476C8.042 8.17747 8.01602 8.21627 7.98328 8.24892L3.76453 12.4677C3.69852 12.5337 3.60899 12.5708 3.51563 12.5708C3.42227 12.5708 3.33274 12.5337 3.26672 12.4677C3.20071 12.4017 3.16362 12.3121 3.16362 12.2188C3.16362 12.1254 3.20071 12.0359 3.26672 11.9699L7.23727 8.00002L3.26672 4.03017C3.23398 3.99752 3.20801 3.95872 3.19028 3.91601C3.17256 3.8733 3.16344 3.82751 3.16344 3.78127C3.16344 3.73503 3.17256 3.68924 3.19028 3.64653C3.20801 3.60381 3.23398 3.56502 3.26672 3.53236Z" fill="#3C4852" stroke="#3C4852" stroke-width="1.05469"/>
</svg>
