<svg width="28" height="28" viewBox="0 0 28 28" fill="none" xmlns="http://www.w3.org/2000/svg">
<path d="M5.66458 3.8186H21.5254C22.1264 3.8186 22.7027 4.05732 23.1276 4.48225C23.5525 4.90718 23.7913 5.4835 23.7913 6.08444V21.9453C23.7913 22.5462 23.5525 23.1225 23.1276 23.5475C22.7027 23.9724 22.1264 24.2111 21.5254 24.2111H5.66458C5.06365 24.2111 4.48732 23.9724 4.0624 23.5475C3.63747 23.1225 3.39875 22.5462 3.39875 21.9453V6.08444C3.39875 5.4835 3.63747 4.90718 4.0624 4.48225C4.48732 4.05732 5.06365 3.8186 5.66458 3.8186ZM20.3925 6.08444H17.5602C16.5086 6.08444 15.5 6.5022 14.7564 7.24582C14.0128 7.98944 13.595 8.99801 13.595 10.0496V12.8819H11.3292V16.2807H13.595V24.2111H16.9938V16.2807H20.3925V12.8819H16.9938V10.6161C16.9938 10.3156 17.1131 10.0275 17.3256 9.81501C17.538 9.60255 17.8262 9.48319 18.1267 9.48319H20.3925V6.08444Z" fill="white"/>
</svg>
