<svg width="28" height="28" viewBox="0 0 28 28" fill="none" xmlns="http://www.w3.org/2000/svg">
<path d="M21.7154 3.8186C22.3163 3.8186 22.8927 4.05732 23.3176 4.48225C23.7425 4.90718 23.9812 5.4835 23.9812 6.08444V21.9453C23.9812 22.5462 23.7425 23.1225 23.3176 23.5475C22.8927 23.9724 22.3163 24.2111 21.7154 24.2111H5.85458C5.25364 24.2111 4.67732 23.9724 4.25239 23.5475C3.82747 23.1225 3.58875 22.5462 3.58875 21.9453V6.08444C3.58875 5.4835 3.82747 4.90718 4.25239 4.48225C4.67732 4.05732 5.25364 3.8186 5.85458 3.8186H21.7154ZM21.149 21.3788V15.3744C21.149 14.3948 20.7598 13.4554 20.0672 12.7628C19.3746 12.0702 18.4352 11.681 17.4556 11.681C16.4927 11.681 15.3711 12.2702 14.8273 13.1538V11.8963H11.6664V21.3788H14.8273V15.7935C14.8273 14.9212 15.5297 14.2074 16.402 14.2074C16.8227 14.2074 17.2261 14.3746 17.5236 14.672C17.821 14.9695 17.9881 15.3729 17.9881 15.7935V21.3788H21.149ZM7.98446 10.1176C8.48925 10.1176 8.97336 9.9171 9.3303 9.56016C9.68724 9.20322 9.88776 8.71911 9.88776 8.21432C9.88776 7.16071 9.03807 6.29969 7.98446 6.29969C7.47667 6.29969 6.98968 6.50141 6.63061 6.86047C6.27155 7.21954 6.06983 7.70653 6.06983 8.21432C6.06983 9.26793 6.93085 10.1176 7.98446 10.1176ZM9.55922 21.3788V11.8963H6.42104V21.3788H9.55922Z" fill="white"/>
</svg>
