<svg width="28" height="28" viewBox="0 0 28 28" fill="none" xmlns="http://www.w3.org/2000/svg">
<path d="M11.6392 17.4136L17.519 14.0149L11.6392 10.6161V17.4136ZM24.7357 8.5429C24.883 9.07537 24.9849 9.78911 25.0529 10.6954C25.1322 11.6018 25.1662 12.3835 25.1662 13.0632L25.2342 14.0149C25.2342 16.496 25.0529 18.32 24.7357 19.4869C24.4525 20.5065 23.7954 21.1636 22.7757 21.4468C22.2433 21.5941 21.269 21.6961 19.7735 21.764C18.3007 21.8433 16.9525 21.8773 15.7063 21.8773L13.905 21.9453C9.15808 21.9453 6.20117 21.764 5.03427 21.4468C4.01464 21.1636 3.35755 20.5065 3.07432 19.4869C2.92704 18.9544 2.82508 18.2407 2.7571 17.3343C2.6778 16.428 2.64381 15.6463 2.64381 14.9665L2.57584 14.0149C2.57584 11.5338 2.7571 9.70981 3.07432 8.5429C3.35755 7.52328 4.01464 6.86619 5.03427 6.58296C5.56674 6.43568 6.54104 6.33371 8.03649 6.26574C9.50929 6.18643 10.8575 6.15245 12.1037 6.15245L13.905 6.08447C18.6519 6.08447 21.6088 6.26574 22.7757 6.58296C23.7954 6.86619 24.4525 7.52328 24.7357 8.5429Z" fill="white"/>
</svg>
