<svg width="16" height="16" viewBox="0 0 16 16" fill="none" xmlns="http://www.w3.org/2000/svg">
<path fill-rule="evenodd" clip-rule="evenodd" d="M4.646 1.64598C4.69245 1.59942 4.74762 1.56247 4.80837 1.53727C4.86911 1.51206 4.93423 1.49908 5 1.49908C5.06577 1.49908 5.13089 1.51206 5.19163 1.53727C5.25238 1.56247 5.30756 1.59942 5.354 1.64598L11.354 7.64598C11.4006 7.69242 11.4375 7.7476 11.4627 7.80834C11.4879 7.86909 11.5009 7.93421 11.5009 7.99998C11.5009 8.06575 11.4879 8.13087 11.4627 8.19161C11.4375 8.25236 11.4006 8.30753 11.354 8.35398L5.354 14.354C5.26011 14.4479 5.13278 14.5006 5 14.5006C4.86723 14.5006 4.73989 14.4479 4.646 14.354C4.55211 14.2601 4.49937 14.1328 4.49937 14C4.49937 13.8672 4.55211 13.7399 4.646 13.646L10.293 7.99998L4.646 2.35398C4.59944 2.30753 4.56249 2.25236 4.53729 2.19161C4.51208 2.13087 4.49911 2.06575 4.49911 1.99998C4.49911 1.93421 4.51208 1.86909 4.53729 1.80834C4.56249 1.7476 4.59944 1.69242 4.646 1.64598Z" fill="white" stroke="white" stroke-width="1.5"/>
</svg>
